IKResults																																														
version=1																																														
nRows=7																																														
nColumns=47																																														
inDegrees=yes																																														
																																														
"Units are S.I. units (second, meters, Newtons, ...)"																																														
"If the header above contains a line with 'inDegrees', this indicates whether rotational values are in degrees (yes) or radians (no)."																																														
																																														
endheader																																														
time	r_x	r_y	r_z	t_x	t_y	t_z	sternoclavicular_r2_r	sternoclavicular_r3_r	unrotscap_r3_r	unrotscap_r2_r	acromioclavicular_r2_r	acromioclavicular_r3_r	acromioclavicular_r1_r	unrothum_r1_r	unrothum_r3_r	unrothum_r2_r	elv_angle_r	shoulder_elv_r	shoulder1_r2_r	shoulder_rot_r	elbow_flexion_r	pro_sup_r	deviation_r	flexion_r	wrist_hand_r1_r	wrist_hand_r3_r	sternoclavicular_r2_l	sternoclavicular_r3_l	unrotscap_r3_l	unrotscap_r2_l	acromioclavicular_r2_l	acromioclavicular_r3_l	acromioclavicular_r1_l	unrothum_r1_l	unrothum_r3_l	unrothum_r2_l	elv_angle_l	shoulder_elv_l	shoulder1_r2_l	shoulder_rot_l	elbow_flexion_l	pro_sup_l	deviation_l	flexion_l	wrist_hand_r1_l	wrist_hand_r3_l
2.735	-5.90007073	-5.56879443	-10.17524959	0.26302728	1.3015682	-0.23554578	-15.63680517	10.65342409	-10.65342409	15.63680517	4.33012992	21.16942415	26.15353674	-26.15353674	-21.16942415	-4.33012992	18.35261745	119.4798888	-18.35261745	-69.37891077	11.16958719	-11.80716681	0.03770219	-0.12066985	2.86500171	-3.45693647	-3.92752985	-9.4521831	9.4521831	3.92752985	10.54253183	-7.17955272	27.64244444	-27.64244444	7.17955272	-10.54253183	67.63700032	6.94145919	-67.63700032	-19.59722346	19.58625002	-12.91548579	0.12329342	-0.00299545	8.87420939	-0.08581333
2.74	-5.87376869	-5.58669703	-10.15969512	0.26297764	1.30155748	-0.23550853	-15.65185665	10.71918023	-10.71918023	15.65185665	4.34059673	21.24403819	26.15951084	-26.15951084	-21.24403819	-4.34059673	18.41227912	119.7498898	-18.41227912	-69.41239077	11.13215246	-11.60054055	0.04279573	-0.12579976	3.24188649	-3.60389759	-3.87079749	-9.45511038	9.45511038	3.87079749	10.60111512	-7.1935603	27.6293854	-27.6293854	7.1935603	-10.60111512	67.82793181	6.89940057	-67.82793181	-19.65945526	19.62563229	-12.88937989	0.12283384	-0.00520961	8.84378528	-0.14924419
2.745	-5.88736414	-5.68528577	-10.10763563	0.26292446	1.30164165	-0.23541034	-15.64173341	10.77114151	-10.77114151	15.64173341	4.37418176	21.29532569	26.16449332	-26.16449332	-21.29532569	-4.37418176	18.57176951	119.8946352	-18.57176951	-69.34481413	11.4662595	-11.6312527	0.06522169	-0.13616208	4.872062	-3.90075612	-4.14560635	-9.46742866	9.46742866	4.14560635	10.31309539	-7.15873545	27.69621807	-27.69621807	7.15873545	-10.31309539	66.89466929	6.95855661	-66.89466929	-19.34708022	19.49770901	-12.12983809	0.13141082	-0.00428578	9.40845048	-0.12277844
2.75	-5.90837062	-5.63697939	-10.12210688	0.26289621	1.3016501	-0.23544001	-15.65992159	10.80584644	-10.80584644	15.65992159	4.36792766	21.33827601	26.16752459	-26.16752459	-21.33827601	-4.36792766	18.55098518	120.0690616	-18.55098518	-69.70503491	11.64987807	-11.57566826	0.0764026	-0.1478738	5.66722399	-4.23627245	-4.14053471	-9.4542427	9.4542427	4.14053471	10.32048685	-7.14322638	27.69323619	-27.69323619	7.14322638	-10.32048685	66.91600048	7.02816786	-66.91600048	-19.42728913	19.48371664	-11.74954932	0.13539083	-0.00065973	9.66812752	-0.01889978
2.755	-5.8381067	-5.63155349	-10.12579691	0.26280753	1.3015507	-0.2354496	-15.69074458	10.88756606	-10.88756606	15.69074458	4.36700344	21.43522713	26.17480499	-26.17480499	-21.43522713	-4.36700344	18.56329966	120.4423723	-18.56329966	-69.62173166	11.28999933	-10.97312649	0.06172046	-0.14759654	4.6206575	-4.22832951	-3.7873167	-9.46030419	9.46030419	3.7873167	10.68717753	-7.21527702	27.61028882	-27.61028882	7.21527702	-10.68717753	68.10860357	6.8326759	-68.10860357	-19.97601432	19.74796443	-12.06766064	0.13081693	0.00028329	9.3695709	0.00811559
2.76	-5.84087161	-5.72621812	-10.06187779	0.26274483	1.30165839	-0.23530804	-15.67952683	10.95959341	-10.95959341	15.67952683	4.4103218	21.50730152	26.18167811	-26.18167811	-21.50730152	-4.4103218	18.77001812	120.6517864	-18.77001812	-69.48375302	11.43300041	-11.05998732	0.08004158	-0.15334899	5.92350362	-4.39312504	-4.09572901	-9.47157337	9.47157337	4.09572901	10.3643483	-7.17300877	27.68494896	-27.68494896	7.17300877	-10.3643483	67.06203232	6.91300774	-67.06203232	-19.4983688	19.49735707	-11.43343543	0.1360004	0.00059053	9.70777007	0.01691751
2.765	-5.80411513	-5.80422247	-10.00699657	0.26269066	1.30173262	-0.23519283	-15.67923589	11.03651306	-11.03651306	15.67923589	4.44314339	21.58834517	26.18887916	-26.18887916	-21.58834517	-4.44314339	18.93113408	120.9118505	-18.93113408	-69.47692143	11.53521505	-10.99646354	0.08940223	-0.16027841	6.57694133	-4.59163833	-4.22639063	-9.47662503	9.47662503	4.22639063	10.22753439	-7.15544716	27.71661682	-27.71661682	7.15544716	-10.22753439	66.61855518	6.94552772	-66.61855518	-19.16835431	19.27557442	-11.01075739	0.13901214	0.00210931	9.90311258	0.06042742
